<svg xml:space="preserve" style="enable-background:new 0 0 250.979 244.246;" viewBox="0 0 250.979 244.246" height="244.246px" width="250.979px" y="0px" x="0px" xmlns:xlink="http://www.w3.org/1999/xlink" xmlns="http://www.w3.org/2000/svg" id="Layer_1" version="1.1">
<g id="Layer_1_1_">
	<g id="Layer_4_1_">
		<path d="M250.979,109.715c0-40.701-33.074-73.693-73.871-73.693c-0.635,0-1.262,0.029-1.893,0.046
			C162.334,14.476,138.717,0,111.701,0C70.903,0,37.83,32.995,37.83,73.696c0,0.529,0.026,1.049,0.04,1.576
			C15.556,87.952,0.5,111.88,0.5,139.332c0,40.699,33.073,73.691,73.872,73.691c2.317,0,4.609-0.123,6.878-0.33
			c13.551,16.377,34.051,26.812,56.998,26.812c37.711,0,68.793-28.191,73.289-64.596
			C234.988,162.562,250.979,138.007,250.979,109.715z" style="fill:#D6F0FF;"></path>
	</g>
	<g id="Layer_2_2_">
		<rect height="148.542" width="117.768" style="fill:#FFFFFF;" y="52.671" x="46.401"></rect>
		<g style="opacity:0.33;">
			<g>
				<rect height="141.454" width="145.377" style="fill:#FFFFFF;" y="52.671" x="47.401"></rect>
				<path d="M192.778,195.625H47.401c-0.829,0-1.5-0.672-1.5-1.5V52.671c0-0.829,0.671-1.5,1.5-1.5h145.377
					c0.828,0,1.5,0.671,1.5,1.5v141.454C194.278,194.953,193.606,195.625,192.778,195.625z M48.901,192.625h142.377V54.171H48.901
					V192.625z" style="fill:#6E6E96;"></path>
			</g>
			<g>
				<rect height="24.311" width="15.658" style="fill:#BDDFFF;" y="101.244" x="144.564"></rect>
				<path d="M160.222,127.055h-15.658c-0.828,0-1.5-0.672-1.5-1.5v-24.311c0-0.829,0.672-1.5,1.5-1.5h15.658
					c0.828,0,1.5,0.671,1.5,1.5v24.311C161.722,126.383,161.05,127.055,160.222,127.055z M146.064,124.055h12.658v-21.311h-12.658
					V124.055z" style="fill:#6E6E96;"></path>
			</g>
			<g>
				<rect height="24.16" width="15.658" style="fill:#BDDFFF;" y="131.445" x="144.564"></rect>
				<path d="M160.222,157.105h-15.658c-0.828,0-1.5-0.672-1.5-1.5v-24.16c0-0.828,0.672-1.5,1.5-1.5h15.658
					c0.828,0,1.5,0.672,1.5,1.5v24.16C161.722,156.434,161.05,157.105,160.222,157.105z M146.064,154.105h12.658v-21.16h-12.658
					V154.105z" style="fill:#6E6E96;"></path>
			</g>
			<g>
				<rect height="24.677" width="15.66" style="fill:#BDDFFF;" y="70.671" x="122.5"></rect>
				<path d="M138.16,96.848H122.5c-0.829,0-1.5-0.671-1.5-1.5V70.671c0-0.829,0.671-1.5,1.5-1.5h15.66
					c0.828,0,1.5,0.671,1.5,1.5v24.677C139.66,96.177,138.989,96.848,138.16,96.848z M124,93.848h12.66V72.171H124V93.848z" style="fill:#6E6E96;"></path>
			</g>
			<g>
				<rect height="24.311" width="15.66" style="fill:#BDDFFF;" y="101.244" x="122.5"></rect>
				<path d="M138.16,127.055H122.5c-0.829,0-1.5-0.672-1.5-1.5v-24.311c0-0.829,0.671-1.5,1.5-1.5h15.66
					c0.828,0,1.5,0.671,1.5,1.5v24.311C139.66,126.383,138.989,127.055,138.16,127.055z M124,124.055h12.66v-21.311H124V124.055z" style="fill:#6E6E96;"></path>
			</g>
			<g>
				<rect height="24.311" width="18.425" style="fill:#BDDFFF;" y="101.244" x="166.629"></rect>
				<path d="M185.054,127.055h-18.425c-0.828,0-1.5-0.672-1.5-1.5v-24.311c0-0.829,0.672-1.5,1.5-1.5h18.425
					c0.828,0,1.5,0.671,1.5,1.5v24.311C186.554,126.383,185.882,127.055,185.054,127.055z M168.129,124.055h15.425v-21.311h-15.425
					V124.055z" style="fill:#6E6E96;"></path>
			</g>
			<g>
				<rect height="24.677" width="15.658" style="fill:#BDDFFF;" y="70.671" x="144.564"></rect>
				<path d="M160.222,96.848h-15.658c-0.828,0-1.5-0.671-1.5-1.5V70.671c0-0.829,0.672-1.5,1.5-1.5h15.658
					c0.828,0,1.5,0.671,1.5,1.5v24.677C161.722,96.177,161.05,96.848,160.222,96.848z M146.064,93.848h12.658V72.171h-12.658V93.848
					z" style="fill:#6E6E96;"></path>
			</g>
			<g>
				<rect height="24.16" width="15.66" style="fill:#BDDFFF;" y="131.445" x="122.5"></rect>
				<path d="M138.16,157.105H122.5c-0.829,0-1.5-0.672-1.5-1.5v-24.16c0-0.828,0.671-1.5,1.5-1.5h15.66
					c0.828,0,1.5,0.672,1.5,1.5v24.16C139.66,156.434,138.989,157.105,138.16,157.105z M124,154.105h12.66v-21.16H124V154.105z" style="fill:#6E6E96;"></path>
			</g>
			<g>
				<rect height="24.677" width="18.425" style="fill:#BDDFFF;" y="70.671" x="166.629"></rect>
				<path d="M185.054,96.848h-18.425c-0.828,0-1.5-0.671-1.5-1.5V70.671c0-0.829,0.672-1.5,1.5-1.5h18.425
					c0.828,0,1.5,0.671,1.5,1.5v24.677C186.554,96.177,185.882,96.848,185.054,96.848z M168.129,93.848h15.425V72.171h-15.425
					V93.848z" style="fill:#6E6E96;"></path>
			</g>
			<g>
				<rect height="24.16" width="18.425" style="fill:#BDDFFF;" y="131.445" x="166.629"></rect>
				<path d="M185.054,157.105h-18.425c-0.828,0-1.5-0.672-1.5-1.5v-24.16c0-0.828,0.672-1.5,1.5-1.5h18.425
					c0.828,0,1.5,0.672,1.5,1.5v24.16C186.554,156.434,185.882,157.105,185.054,157.105z M168.129,154.105h15.425v-21.16h-15.425
					V154.105z" style="fill:#6E6E96;"></path>
			</g>
			<g>
				<rect height="24.311" width="16.942" style="fill:#BDDFFF;" y="101.244" x="55.025"></rect>
				<path d="M71.967,127.055H55.025c-0.829,0-1.5-0.672-1.5-1.5v-24.311c0-0.829,0.671-1.5,1.5-1.5h16.942
					c0.829,0,1.5,0.671,1.5,1.5v24.311C73.467,126.383,72.796,127.055,71.967,127.055z M56.525,124.055h13.942v-21.311H56.525
					V124.055z" style="fill:#6E6E96;"></path>
			</g>
			<g>
				<rect height="24.677" width="16.942" style="fill:#BDDFFF;" y="70.671" x="55.025"></rect>
				<path d="M71.967,96.848H55.025c-0.829,0-1.5-0.671-1.5-1.5V70.671c0-0.829,0.671-1.5,1.5-1.5h16.942
					c0.829,0,1.5,0.671,1.5,1.5v24.677C73.467,96.177,72.796,96.848,71.967,96.848z M56.525,93.848h13.942V72.171H56.525V93.848z" style="fill:#6E6E96;"></path>
			</g>
			<g>
				<rect height="24.16" width="16.942" style="fill:#BDDFFF;" y="131.445" x="55.025"></rect>
				<path d="M71.967,157.105H55.025c-0.829,0-1.5-0.672-1.5-1.5v-24.16c0-0.828,0.671-1.5,1.5-1.5h16.942
					c0.829,0,1.5,0.672,1.5,1.5v24.16C73.467,156.434,72.796,157.105,71.967,157.105z M56.525,154.105h13.942v-21.16H56.525V154.105
					z" style="fill:#6E6E96;"></path>
			</g>
			<g>
				<rect height="24.16" width="15.655" style="fill:#BDDFFF;" y="131.445" x="78.373"></rect>
				<path d="M94.029,157.105H78.373c-0.829,0-1.5-0.672-1.5-1.5v-24.16c0-0.828,0.671-1.5,1.5-1.5h15.655
					c0.829,0,1.5,0.672,1.5,1.5v24.16C95.529,156.434,94.857,157.105,94.029,157.105z M79.873,154.105h12.655v-21.16H79.873V154.105
					z" style="fill:#6E6E96;"></path>
			</g>
			<g>
				<rect height="24.311" width="15.655" style="fill:#BDDFFF;" y="101.244" x="78.373"></rect>
				<path d="M94.029,127.055H78.373c-0.829,0-1.5-0.672-1.5-1.5v-24.311c0-0.829,0.671-1.5,1.5-1.5h15.655
					c0.829,0,1.5,0.671,1.5,1.5v24.311C95.529,126.383,94.857,127.055,94.029,127.055z M79.873,124.055h12.655v-21.311H79.873
					V124.055z" style="fill:#6E6E96;"></path>
			</g>
			<g>
				<rect height="24.16" width="15.659" style="fill:#BDDFFF;" y="131.445" x="100.437"></rect>
				<path d="M116.096,157.105h-15.659c-0.829,0-1.5-0.672-1.5-1.5v-24.16c0-0.828,0.671-1.5,1.5-1.5h15.659
					c0.829,0,1.5,0.672,1.5,1.5v24.16C117.596,156.434,116.925,157.105,116.096,157.105z M101.937,154.105h12.659v-21.16h-12.659
					V154.105z" style="fill:#6E6E96;"></path>
			</g>
			<g>
				<rect height="24.677" width="15.659" style="fill:#BDDFFF;" y="70.671" x="100.437"></rect>
				<path d="M116.096,96.848h-15.659c-0.829,0-1.5-0.671-1.5-1.5V70.671c0-0.829,0.671-1.5,1.5-1.5h15.659
					c0.829,0,1.5,0.671,1.5,1.5v24.677C117.596,96.177,116.925,96.848,116.096,96.848z M101.937,93.848h12.659V72.171h-12.659
					V93.848z" style="fill:#6E6E96;"></path>
			</g>
			<g>
				<rect height="24.311" width="15.659" style="fill:#BDDFFF;" y="101.244" x="100.437"></rect>
				<path d="M116.096,127.055h-15.659c-0.829,0-1.5-0.672-1.5-1.5v-24.311c0-0.829,0.671-1.5,1.5-1.5h15.659
					c0.829,0,1.5,0.671,1.5,1.5v24.311C117.596,126.383,116.925,127.055,116.096,127.055z M101.937,124.055h12.659v-21.311h-12.659
					V124.055z" style="fill:#6E6E96;"></path>
			</g>
			<g>
				<rect height="24.677" width="15.655" style="fill:#BDDFFF;" y="70.671" x="78.373"></rect>
				<path d="M94.029,96.848H78.373c-0.829,0-1.5-0.671-1.5-1.5V70.671c0-0.829,0.671-1.5,1.5-1.5h15.655
					c0.829,0,1.5,0.671,1.5,1.5v24.677C95.529,96.177,94.857,96.848,94.029,96.848z M79.873,93.848h12.655V72.171H79.873V93.848z" style="fill:#6E6E96;"></path>
			</g>
			<g>
				<rect height="7.074" width="153.227" style="fill:#D5B697;" y="52.671" x="43.483"></rect>
				<path d="M196.709,61.245H43.483c-0.829,0-1.5-0.671-1.5-1.5v-7.074c0-0.829,0.671-1.5,1.5-1.5h153.227
					c0.828,0,1.5,0.671,1.5,1.5v7.074C198.209,60.574,197.537,61.245,196.709,61.245z M44.983,58.245h150.227v-4.074H44.983V58.245z" style="fill:#6E6E96;"></path>
			</g>
			<g>
				<rect height="24.16" width="15.658" style="fill:#BDDFFF;" y="161.895" x="144.564"></rect>
				<path d="M160.222,187.555h-15.658c-0.828,0-1.5-0.672-1.5-1.5v-24.16c0-0.828,0.672-1.5,1.5-1.5h15.658
					c0.828,0,1.5,0.672,1.5,1.5v24.16C161.722,186.883,161.05,187.555,160.222,187.555z M146.064,184.555h12.658v-21.16h-12.658
					V184.555z" style="fill:#6E6E96;"></path>
			</g>
			<g>
				<rect height="24.16" width="18.425" style="fill:#BDDFFF;" y="161.895" x="166.629"></rect>
				<path d="M185.054,187.555h-18.425c-0.828,0-1.5-0.672-1.5-1.5v-24.16c0-0.828,0.672-1.5,1.5-1.5h18.425
					c0.828,0,1.5,0.672,1.5,1.5v24.16C186.554,186.883,185.882,187.555,185.054,187.555z M168.129,184.555h15.425v-21.16h-15.425
					V184.555z" style="fill:#6E6E96;"></path>
			</g>
			<g>
				<rect height="24.16" width="16.942" style="fill:#BDDFFF;" y="161.895" x="55.025"></rect>
				<path d="M71.967,187.555H55.025c-0.829,0-1.5-0.672-1.5-1.5v-24.16c0-0.828,0.671-1.5,1.5-1.5h16.942
					c0.829,0,1.5,0.672,1.5,1.5v24.16C73.467,186.883,72.796,187.555,71.967,187.555z M56.525,184.555h13.942v-21.16H56.525V184.555
					z" style="fill:#6E6E96;"></path>
			</g>
			<g>
				<rect height="24.16" width="15.655" style="fill:#BDDFFF;" y="161.895" x="78.373"></rect>
				<path d="M94.029,187.555H78.373c-0.829,0-1.5-0.672-1.5-1.5v-24.16c0-0.828,0.671-1.5,1.5-1.5h15.655
					c0.829,0,1.5,0.672,1.5,1.5v24.16C95.529,186.883,94.857,187.555,94.029,187.555z M79.873,184.555h12.655v-21.16H79.873V184.555
					z" style="fill:#6E6E96;"></path>
			</g>
			<g>
				<rect height="32.229" width="37.784" style="fill:#E4BC96;" y="161.895" x="100.437"></rect>
				<path d="M138.221,195.624h-37.784c-0.829,0-1.5-0.672-1.5-1.5v-32.229c0-0.828,0.671-1.5,1.5-1.5h37.784
					c0.828,0,1.5,0.672,1.5,1.5v32.229C139.721,194.952,139.049,195.624,138.221,195.624z M101.937,192.624h34.784v-29.229h-34.784
					V192.624z" style="fill:#6E6E96;"></path>
			</g>
			<path d="M119.113,195.625c-0.829,0-1.5-0.672-1.5-1.5v-32.23c0-0.828,0.671-1.5,1.5-1.5s1.5,0.672,1.5,1.5
				v32.23C120.613,194.953,119.941,195.625,119.113,195.625z" style="fill:#6E6E96;"></path>
		</g>
		<rect height="18" width="38" style="fill:#D6F0FF;" y="191.557" x="85.833"></rect>
		<path d="M101.625,21.598H80.5c-1.381,0-2.5-1.119-2.5-2.5s1.119-2.5,2.5-2.5h21.125
			c1.381,0,2.5,1.119,2.5,2.5S103.006,21.598,101.625,21.598z" style="fill:#FFFFFF;"></path>
		<path d="M115.465,32.525H90.698c-1.381,0-2.5-1.119-2.5-2.5s1.119-2.5,2.5-2.5h24.767
			c1.381,0,2.5,1.119,2.5,2.5S116.846,32.525,115.465,32.525z" style="fill:#FFFFFF;"></path>
	</g>
	<g id="Layer_3_1_">
		<g>
			<rect height="9.561" width="67.122" style="fill:#EBEBF7;" y="21.587" x="156.502"></rect>
			<path d="M223.624,32.648h-67.122c-0.828,0-1.5-0.671-1.5-1.5v-9.561c0-0.829,0.672-1.5,1.5-1.5h67.122
				c0.828,0,1.5,0.671,1.5,1.5v9.561C225.124,31.977,224.452,32.648,223.624,32.648z M158.002,29.648h64.122v-6.561h-64.122V29.648z" style="fill:#CCCCDE;"></path>
		</g>
		<g>
			<rect height="169.355" width="105.589" style="fill:#FFFFFF;" y="30.982" x="137.1"></rect>
			<path d="M242.689,201.837H137.1c-0.828,0-1.5-0.672-1.5-1.5V30.982c0-0.829,0.672-1.5,1.5-1.5h105.589
				c0.828,0,1.5,0.671,1.5,1.5v169.355C244.189,201.165,243.517,201.837,242.689,201.837z M138.6,198.837h102.589V32.482H138.6
				V198.837z" style="fill:#CCCCDE;"></path>
		</g>
		<g>
			<rect height="160.893" width="88.036" style="fill:#CFE7FF;" y="39.445" x="146.174"></rect>
			<path d="M234.21,201.838h-88.036c-0.828,0-1.5-0.672-1.5-1.5V39.445c0-0.829,0.672-1.5,1.5-1.5h88.036
				c0.828,0,1.5,0.671,1.5,1.5v160.893C235.71,201.166,235.038,201.838,234.21,201.838z M147.674,198.838h85.036V40.945h-85.036
				V198.838z" style="fill:#CCCCDE;"></path>
		</g>
		<polygon points="147.297,123.091 229.938,40.452 169.996,40.619 
			147.297,63.995" style="opacity:0.49;fill:#FFFFFF;enable-background:new    ;"></polygon>
		<polygon points="233.478,62.664 146.653,149.486 170.497,150.176 
			233.478,87.196" style="opacity:0.27;fill:#FFFFFF;enable-background:new    ;"></polygon>
		<g>
			<rect height="50.793" width="88.036" style="fill:#CFE7FF;" y="149.544" x="146.174"></rect>
			<path d="M234.21,201.837h-88.036c-0.828,0-1.5-0.672-1.5-1.5v-50.793c0-0.828,0.672-1.5,1.5-1.5h88.036
				c0.828,0,1.5,0.672,1.5,1.5v50.793C235.71,201.165,235.038,201.837,234.21,201.837z M147.674,198.837h85.036v-47.793h-85.036
				V198.837z" style="fill:#CCCCDE;"></path>
		</g>
		<g style="opacity:0.37;">
			<polygon points="169.293,162.003 147.475,183.188 
				147.475,196.125 169.293,174.939" style="opacity:0.49;fill:#FFFFFF;enable-background:new    ;"></polygon>
			<polyline points="147.349,173.376 159.062,162.003 
				147.349,162.003" style="opacity:0.49;fill:#FFFFFF;enable-background:new    ;"></polyline>
		</g>
		<g style="opacity:0.37;">
			<polygon points="200.758,162.003 179.573,183.188 
				179.573,196.125 200.758,174.939" style="opacity:0.49;fill:#FFFFFF;enable-background:new    ;"></polygon>
			<polyline points="180.294,173.376 191.667,162.003 
				180.294,162.003" style="opacity:0.49;fill:#FFFFFF;enable-background:new    ;"></polyline>
		</g>
		<g style="opacity:0.37;">
			<polygon points="233.018,162.003 209.48,183.188 209.48,196.125 
				233.018,174.939" style="opacity:0.49;fill:#FFFFFF;enable-background:new    ;"></polygon>
			<polyline points="210.28,173.376 222.918,162.003 210.28,162.003" style="opacity:0.49;fill:#FFFFFF;enable-background:new    ;"></polyline>
		</g>
		<rect height="110.099" width="3" style="fill:#CCCCDE;" y="39.445" x="155.893"></rect>
		<rect height="110.099" width="3" style="fill:#CCCCDE;" y="39.445" x="167.127"></rect>
		<rect height="110.099" width="3" style="fill:#CCCCDE;" y="39.445" x="178.079"></rect>
		<rect height="110.099" width="3" style="fill:#CCCCDE;" y="39.445" x="189.593"></rect>
		<rect height="110.099" width="3" style="fill:#CCCCDE;" y="39.445" x="200.545"></rect>
		<rect height="110.099" width="3" style="fill:#CCCCDE;" y="39.445" x="211.216"></rect>
		<rect height="110.099" width="3" style="fill:#CCCCDE;" y="39.445" x="221.888"></rect>
		<path d="M234.21,64.16h-88.036c-0.828,0-1.5-0.671-1.5-1.5s0.672-1.5,1.5-1.5h88.036
			c0.828,0,1.5,0.671,1.5,1.5S235.038,64.16,234.21,64.16z" style="fill:#CCCCDE;"></path>
		<path d="M234.21,86.625h-88.036c-0.828,0-1.5-0.671-1.5-1.5s0.672-1.5,1.5-1.5h88.036
			c0.828,0,1.5,0.671,1.5,1.5S235.038,86.625,234.21,86.625z" style="fill:#CCCCDE;"></path>
		<path d="M234.21,107.969h-88.036c-0.828,0-1.5-0.671-1.5-1.5s0.672-1.5,1.5-1.5h88.036
			c0.828,0,1.5,0.671,1.5,1.5S235.038,107.969,234.21,107.969z" style="fill:#CCCCDE;"></path>
		<rect height="3" width="88.036" style="fill:#CCCCDE;" y="126.311" x="146.174"></rect>
		<g>
			<rect height="42.618" width="8.981" style="fill:#F0F0FF;" y="157.719" x="170.592"></rect>
			<path d="M179.573,201.837h-8.981c-0.828,0-1.5-0.672-1.5-1.5v-42.618c0-0.828,0.672-1.5,1.5-1.5h8.981
				c0.828,0,1.5,0.672,1.5,1.5v42.618C181.073,201.165,180.402,201.837,179.573,201.837z M172.092,198.837h5.981v-39.618h-5.981
				V198.837z" style="fill:#CCCCDE;"></path>
		</g>
		<g>
			<rect height="44.562" width="8.425" style="fill:#F0F0FF;" y="155.773" x="200.5"></rect>
			<path d="M208.925,201.836H200.5c-0.828,0-1.5-0.672-1.5-1.5v-44.562c0-0.828,0.672-1.5,1.5-1.5h8.425
				c0.828,0,1.5,0.672,1.5,1.5v44.562C210.425,201.164,209.753,201.836,208.925,201.836z M202,198.836h5.425v-41.562H202V198.836z" style="fill:#CCCCDE;"></path>
		</g>
		<g>
			<rect height="12.459" width="88.036" style="fill:#F0F0FF;" y="149.544" x="146.174"></rect>
			<path d="M234.21,163.503h-88.036c-0.828,0-1.5-0.672-1.5-1.5v-12.459c0-0.828,0.672-1.5,1.5-1.5h88.036
				c0.828,0,1.5,0.672,1.5,1.5v12.459C235.71,162.831,235.038,163.503,234.21,163.503z M147.674,160.503h85.036v-9.459h-85.036
				V160.503z" style="fill:#CCCCDE;"></path>
		</g>
		<g>
			<rect height="7.509" width="29.486" style="fill:#EBEBF7;" y="14.078" x="175.319"></rect>
			<path d="M204.805,23.087h-29.486c-0.828,0-1.5-0.671-1.5-1.5v-7.509c0-0.829,0.672-1.5,1.5-1.5h29.486
				c0.828,0,1.5,0.671,1.5,1.5v7.509C206.305,22.416,205.633,23.087,204.805,23.087z M176.819,20.087h26.486v-4.509h-26.486V20.087z" style="fill:#CCCCDE;"></path>
		</g>
		<path d="M190.063,15.578c-0.828,0-1.5-0.671-1.5-1.5V1.826c0-0.829,0.672-1.5,1.5-1.5s1.5,0.671,1.5,1.5
			v12.252C191.563,14.907,190.891,15.578,190.063,15.578z" style="fill:#CCCCDE;"></path>
		<g>
			<rect height="8.706" width="114.727" style="fill:#F0F0FF;" y="196.051" x="133.373"></rect>
			<path d="M248.1,206.257H133.373c-0.828,0-1.5-0.672-1.5-1.5v-8.706c0-0.828,0.672-1.5,1.5-1.5H248.1
				c0.828,0,1.5,0.672,1.5,1.5v8.706C249.6,205.585,248.928,206.257,248.1,206.257z M134.873,203.257H246.6v-5.706H134.873V203.257z" style="fill:#CCCCDE;"></path>
		</g>
	</g>
	<g id="Layer_6_2_">
		<g>
			<polygon points="98.442,204.757 9.331,204.757 9.331,128.594 53.887,100.072 98.442,128.594" style="fill:#FFFFFF;"></polygon>
			<path d="M99.942,206.257H7.831v-78.484l46.056-29.481l46.055,29.481V206.257z M10.831,203.257h86.11
				v-73.842l-43.055-27.562l-43.056,27.562V203.257z" style="fill:#CCCCDE;"></path>
		</g>
		<g>
			<polygon points="53.887,95.235 1.5,127.083 1.5,132.32 9.331,132.32 53.887,104.815 98.321,132.684 
				105.193,132.791 105.193,127.083" style="fill:#E0E6FC;"></polygon>
			<path d="M105.193,134.291c-0.008,0-0.016,0-0.023,0l-6.872-0.107c-0.274-0.005-0.542-0.084-0.773-0.229
				l-43.643-27.373l-43.761,27.015c-0.237,0.146-0.51,0.224-0.788,0.224H1.5c-0.829,0-1.5-0.672-1.5-1.5v-5.237
				c0-0.523,0.273-1.01,0.721-1.281l52.387-31.849c0.482-0.293,1.09-0.291,1.57,0.007l51.306,31.848
				c0.441,0.273,0.709,0.756,0.709,1.274v5.708c0,0.402-0.161,0.787-0.448,1.069C105.964,134.137,105.586,134.291,105.193,134.291z
				 M98.763,131.19l4.93,0.077v-3.351L53.879,96.995L3,127.927v2.894h5.905l44.193-27.282c0.487-0.3,1.102-0.297,1.585,0.006
				L98.763,131.19z" style="fill:#CCCCDE;"></path>
		</g>
		<g>
			<rect height="19.961" width="30.25" style="fill:#D4EAFF;" y="166.613" x="17.744"></rect>
			<path d="M47.994,188.074h-30.25c-0.829,0-1.5-0.672-1.5-1.5v-19.961c0-0.828,0.671-1.5,1.5-1.5h30.25
				c0.829,0,1.5,0.672,1.5,1.5v19.961C49.494,187.402,48.823,188.074,47.994,188.074z M19.244,185.074h27.25v-16.961h-27.25V185.074
				z" style="fill:#CCCCDE;"></path>
		</g>
		<g>
			<rect height="12.131" width="89.109" style="fill:#FCEBE3;" y="192.626" x="9.331"></rect>
			<path d="M98.441,206.257H9.331c-0.829,0-1.5-0.672-1.5-1.5v-12.131c0-0.828,0.671-1.5,1.5-1.5h89.109
				c0.829,0,1.5,0.672,1.5,1.5v12.131C99.941,205.585,99.269,206.257,98.441,206.257z M10.831,203.257h86.109v-9.131H10.831V203.257
				z" style="fill:#CCCCDE;"></path>
		</g>
		<g>
			<path d="M49.257,204.757c0-0.022,0.004-0.045,0.004-0.069c0-3.756-2.626-6.801-5.865-6.801
				c-1.5,0-2.861,0.659-3.898,1.731c-0.809-4.466-4.22-7.817-8.31-7.817c-1.858,0-3.578,0.702-4.977,1.881
				c-1.759-2.806-4.604-4.638-7.822-4.638c-4.419,0-8.138,3.438-9.296,8.134c-0.435-0.111-0.884-0.177-1.348-0.177
				c-3.449,0-6.245,3.242-6.245,7.246c0,0.172,0.012,0.34,0.021,0.51H49.257L49.257,204.757z" style="fill:#CCE8D6;"></path>
			<path d="M49.257,206.257H1.521c-0.798,0-1.457-0.625-1.498-1.423C0.009,204.574,0,204.412,0,204.247
				c0-4.929,3.607-8.927,8.029-8.74c1.685-4.75,5.785-7.963,10.359-7.963c3.108,0,6.068,1.49,8.167,4.052
				c1.422-0.851,2.999-1.295,4.631-1.295c4.023,0,7.607,2.765,9.166,6.829c0.948-0.486,1.982-0.743,3.042-0.743
				c4.061,0,7.365,3.724,7.365,8.301c0,0.043-0.004,0.121-0.007,0.163C50.754,205.68,50.086,206.257,49.257,206.257z M3.071,203.257
				h44.543c-0.502-2.204-2.203-3.87-4.218-3.87c-1.312,0-2.258,0.693-2.82,1.274c-0.391,0.404-0.976,0.552-1.514,0.393
				c-0.538-0.164-0.94-0.614-1.04-1.168c-0.691-3.815-3.564-6.585-6.833-6.585c-1.438,0-2.824,0.528-4.01,1.527
				c-0.333,0.281-0.77,0.399-1.199,0.336c-0.429-0.067-0.808-0.317-1.039-0.686c-1.567-2.501-3.955-3.935-6.551-3.935
				c-3.6,0-6.824,2.876-7.839,6.993c-0.096,0.389-0.343,0.723-0.687,0.928c-0.344,0.206-0.755,0.266-1.142,0.166
				c-0.341-0.088-0.66-0.13-0.976-0.13C5.408,198.501,3.459,200.559,3.071,203.257z" style="fill:#CCCCDE;"></path>
		</g>
		<g>
			<rect height="38.145" width="23.24" style="fill:#FFDEDE;" y="166.613" x="61.471"></rect>
			<path d="M84.711,206.258h-23.24c-0.829,0-1.5-0.672-1.5-1.5v-38.145c0-0.828,0.671-1.5,1.5-1.5h23.24
				c0.829,0,1.5,0.672,1.5,1.5v38.145C86.211,205.586,85.54,206.258,84.711,206.258z M62.971,203.258h20.24v-35.145h-20.24V203.258z" style="fill:#CCCCDE;"></path>
		</g>
		<path d="M98.442,161.007H9.331c-0.829,0-1.5-0.672-1.5-1.5s0.671-1.5,1.5-1.5h89.11
			c0.829,0,1.5,0.672,1.5,1.5S99.27,161.007,98.442,161.007z" style="fill:#CCCCDE;"></path>
		<g>
			<g>
				<rect height="18.535" width="16.274" style="fill:#D4EAFF;" y="133.689" x="17.744"></rect>
				<path d="M34.019,153.725H17.744c-0.829,0-1.5-0.672-1.5-1.5v-18.535c0-0.828,0.671-1.5,1.5-1.5h16.274
					c0.829,0,1.5,0.672,1.5,1.5v18.535C35.519,153.053,34.847,153.725,34.019,153.725z M19.244,150.725h13.274v-15.535H19.244
					V150.725z" style="fill:#CCCCDE;"></path>
			</g>
			<path d="M34.021,144.457H17.744c-0.829,0-1.5-0.672-1.5-1.5s0.671-1.5,1.5-1.5h16.276
				c0.829,0,1.5,0.672,1.5,1.5S34.849,144.457,34.021,144.457z" style="fill:#CCCCDE;"></path>
		</g>
		<g>
			<g>
				<rect height="18.535" width="16.277" style="fill:#D4EAFF;" y="133.689" x="73.422"></rect>
				<path d="M89.699,153.725H73.422c-0.829,0-1.5-0.672-1.5-1.5v-18.535c0-0.828,0.671-1.5,1.5-1.5h16.277
					c0.829,0,1.5,0.672,1.5,1.5v18.535C91.199,153.053,90.528,153.725,89.699,153.725z M74.922,150.725h13.277v-15.535H74.922
					V150.725z" style="fill:#CCCCDE;"></path>
			</g>
			<path d="M89.699,144.457H73.422c-0.829,0-1.5-0.672-1.5-1.5s0.671-1.5,1.5-1.5h16.277
				c0.829,0,1.5,0.672,1.5,1.5S90.528,144.457,89.699,144.457z" style="fill:#CCCCDE;"></path>
		</g>
		<g>
			<g>
				<rect height="18.535" width="16.274" style="fill:#D4EAFF;" y="133.689" x="45.664"></rect>
				<path d="M61.939,153.725H45.664c-0.829,0-1.5-0.672-1.5-1.5v-18.535c0-0.828,0.671-1.5,1.5-1.5h16.274
					c0.829,0,1.5,0.672,1.5,1.5v18.535C63.439,153.053,62.767,153.725,61.939,153.725z M47.164,150.725h13.274v-15.535H47.164
					V150.725z" style="fill:#CCCCDE;"></path>
			</g>
			<path d="M61.941,144.457H45.664c-0.829,0-1.5-0.672-1.5-1.5s0.671-1.5,1.5-1.5h16.276
				c0.829,0,1.5,0.672,1.5,1.5S62.769,144.457,61.941,144.457z" style="fill:#CCCCDE;"></path>
		</g>
		<path d="M32.906,188.074c-0.829,0-1.5-0.672-1.5-1.5v-19.961c0-0.828,0.671-1.5,1.5-1.5s1.5,0.672,1.5,1.5
			v19.961C34.406,187.402,33.735,188.074,32.906,188.074z" style="fill:#CCCCDE;"></path>
		<g>
			<rect height="4.355" width="29.531" style="fill:#F0F0FF;" y="200.4" x="58.325"></rect>
			<path d="M87.857,206.256H58.325c-0.829,0-1.5-0.672-1.5-1.5V200.4c0-0.828,0.671-1.5,1.5-1.5h29.531
				c0.829,0,1.5,0.672,1.5,1.5v4.355C89.357,205.584,88.685,206.256,87.857,206.256z M59.825,203.256h26.531V201.9H59.825V203.256z" style="fill:#CCCCDE;"></path>
		</g>
		<g>
			<path d="M111.875,204.757c0-0.017,0.003-0.03,0.003-0.047c0-2.513-1.756-4.549-3.924-4.549
				c-1.002,0-1.916,0.44-2.609,1.157c-0.539-2.985-2.82-5.229-5.556-5.229c-1.244,0-2.395,0.472-3.328,1.259
				c-1.176-1.878-3.079-3.103-5.231-3.103c-2.955,0-5.44,2.301-6.217,5.438c-0.291-0.074-0.592-0.115-0.901-0.115
				c-2.308,0-4.177,2.168-4.177,4.846c0,0.113,0.007,0.229,0.018,0.342L111.875,204.757L111.875,204.757z" style="fill:#CCE8D6;"></path>
			<path d="M111.875,206.257L111.875,206.257l-31.923-0.001c-0.773,0-1.42-0.588-1.493-1.358
				c-0.015-0.16-0.024-0.323-0.024-0.483c0-3.441,2.464-6.252,5.523-6.344c1.268-3.191,4.11-5.325,7.272-5.325
				c2.098,0,4.098,0.941,5.575,2.576c0.93-0.482,1.941-0.732,2.985-0.732c2.736,0,5.187,1.763,6.391,4.404
				c0.565-0.219,1.164-0.332,1.774-0.332c2.991,0,5.424,2.714,5.424,6.049c0,0.036-0.002,0.084-0.005,0.127
				c-0.02,0.368-0.175,0.718-0.438,0.98C112.655,206.099,112.273,206.257,111.875,206.257z M81.6,203.256l28.484,0.001
				c-0.411-0.95-1.212-1.596-2.13-1.596c-0.706,0-1.222,0.381-1.531,0.7c-0.392,0.404-0.977,0.553-1.514,0.393
				c-0.539-0.164-0.94-0.615-1.04-1.169c-0.418-2.315-2.134-3.996-4.08-3.996c-0.842,0-1.659,0.313-2.361,0.905
				c-0.333,0.28-0.768,0.403-1.199,0.335c-0.429-0.066-0.808-0.317-1.039-0.686c-0.954-1.524-2.397-2.398-3.96-2.398
				c-2.177,0-4.134,1.768-4.761,4.299c-0.096,0.388-0.343,0.722-0.686,0.927c-0.343,0.206-0.754,0.267-1.141,0.166
				C83.277,200.795,82.035,201.788,81.6,203.256z" style="fill:#CCCCDE;"></path>
		</g>
		<path d="M65.345,187.375c-0.829,0-1.5-0.672-1.5-1.5v-4.84c0-0.828,0.671-1.5,1.5-1.5s1.5,0.672,1.5,1.5
			v4.84C66.845,186.703,66.174,187.375,65.345,187.375z" style="fill:#CCCCDE;"></path>
	</g>
</g>
<g id="Layer_2_1_">
	<rect height="6.889" width="162.008" style="opacity:0.54;fill:#FFFFFF;enable-background:new    ;" y="184.12" x="47.171"></rect>
	<g>
		<path d="M149.006,221.527H95.544l0,0c-1.401,0-2.539,1.14-2.539,2.539c0,1.402,1.137,2.539,2.539,2.539l0,0
			h53.462l0,0c1.401,0,2.539-1.137,2.539-2.539C151.545,222.666,150.406,221.527,149.006,221.527L149.006,221.527z" style="fill:#6E6E96;"></path>
	</g>
	<g>
		<path d="M102.927,181.341L102.927,181.341v-55.875l0,0H65.31c-7.36,0-11.023,5.875-11.804,9.511
			l-7.27,40.434l-0.038-0.005c-0.779,3.64-1.419,9.655-1.419,13.374v28.529c0,3.719,3.044,6.76,6.761,6.76h12.558l119.224-0.002
			h27.779V188.1l0.003-6.757H102.927V181.341z" style="fill:#B8CFFF;"></path>
		<path d="M64.098,225.568H51.54c-4.555,0-8.261-3.705-8.261-8.26v-28.529c0-3.808,0.651-9.948,1.452-13.688
			l0.238-1.11l7.06-39.27c0.933-4.349,5.228-10.745,13.28-10.745h39.117v55.875l108.178,0.002l-0.004,45.724L64.098,225.568z
			 M47.401,177.072c-0.638,3.568-1.122,8.503-1.122,11.707v28.529c0,2.9,2.36,5.26,5.261,5.26l158.061-0.002l0.002-39.724H101.427
			v-55.877H65.31c-6.273,0-9.619,4.979-10.337,8.325l-7.512,41.789L47.401,177.072z" style="fill:#6E6E96;"></path>
	</g>
	<path d="M57.866,205.423h-2.121c-0.829,0-1.5-0.672-1.5-1.5v-31.582c0-0.828,0.671-1.5,1.5-1.5
		s1.5,0.672,1.5,1.5v29.822c1.818-2.464,7.354-8.529,17.787-8.529h16.384v-21.737c0-0.828,0.671-1.5,1.5-1.5s1.5,0.672,1.5,1.5
		v23.237c0,0.828-0.671,1.5-1.5,1.5H75.032c-11.101,0-15.82,7.958-15.867,8.039C58.898,205.137,58.403,205.423,57.866,205.423z" style="fill:#6E6E96;"></path>
	<rect height="5.051" width="160.089" style="opacity:0.2;fill:#6E6E96;enable-background:new    ;" y="206.391" x="49.938"></rect>
	<path d="M55.33,135.898l-7.269,40.433l-0.04-0.005c-0.777,3.64-1.417,9.654-1.417,13.373v28.529
		c0,2.72,1.627,5.066,3.952,6.14c-0.394-0.855-0.621-1.808-0.621-2.808v-28.53c0-3.718,0.64-9.734,1.416-13.373l0.04,0.005
		l7.27-40.434c0.778-3.637,4.44-9.512,11.804-9.512h30.977v-3.33H67.134C59.773,126.388,56.11,132.263,55.33,135.898z" style="fill:#CFDEFF;"></path>
	<path d="M213.651,221.835c0,1.994-1.629,3.627-3.624,3.627H45.135c-1.994,0-3.627-1.633-3.627-3.627v-6.771
		c0-1.994,1.633-3.627,3.627-3.627h164.892c1.994,0,3.624,1.633,3.624,3.627V221.835L213.651,221.835z" style="fill:#F0F0FF;"></path>
	<path d="M209.661,218.529H44.769c-1.995,0-3.627-1.635-3.627-3.629
		v5.475c0,1.995,1.633,3.628,3.627,3.628H209.66c1.993,0,3.626-1.633,3.626-3.628V214.9
		C213.287,216.896,211.656,218.529,209.661,218.529z" style="opacity:0.15;fill:#6E6E96;enable-background:new    ;"></path>
	<path d="M210.027,226.962H45.135c-2.827,0-5.127-2.3-5.127-5.127v-6.771c0-2.827,2.3-5.127,5.127-5.127
		h164.892c2.825,0,5.124,2.3,5.124,5.127v6.771C215.151,224.662,212.852,226.962,210.027,226.962z M45.135,212.938
		c-1.173,0-2.127,0.954-2.127,2.127v6.771c0,1.173,0.954,2.127,2.127,2.127h164.892c1.171,0,2.124-0.954,2.124-2.127v-6.771
		c0-1.173-0.953-2.127-2.124-2.127H45.135z" style="fill:#6E6E96;"></path>
	<g>
		<path d="M52.27,225.462c0,0-3.604-30.128,19.7-30.128c19.663,0,14.855,0,14.855,0
			s18.327-0.071,18.327,30.128H52.27z" style="fill:#A0A0BD;"></path>
		<path d="M106.653,226.962H50.939l-0.158-1.322c-0.08-0.669-1.868-16.503,6.232-25.63
			c3.637-4.098,8.669-6.176,14.957-6.176h14.855c0,0,0.001,0,0.002,0l0.517,0.022c3.192,0.233,19.309,2.839,19.309,31.605V226.962z
			 M53.652,223.962h49.985c-0.562-26.697-16.113-27.123-16.811-27.128h0.001h-0.001c0,0-0.001,0-0.002,0H71.97
			c-5.393,0-9.67,1.738-12.713,5.167C53.302,208.711,53.419,220.104,53.652,223.962z" style="fill:#6E6E96;"></path>
	</g>
	<circle r="17.954" cy="221.146" cx="77.112" style="fill:#BABADB;"></circle>
	<g>
		<path d="M202.359,225.462h-52.885c0,0-3.628-30.128,23.306-30.128
			C172.781,195.334,202.359,190.96,202.359,225.462z" style="fill:#A0A0BD;"></path>
		<path d="M203.859,226.962h-55.715l-0.159-1.32c-0.074-0.618-1.727-15.23,6.506-24.514
			c4.273-4.818,10.393-7.272,18.188-7.294c0.371-0.048,1.547-0.179,3.243-0.179c3.718,0,10.865,0.665,16.959,5.12
			c7.285,5.325,10.979,14.305,10.979,26.687V226.962z M150.865,223.962h49.969c-0.297-9.28-3.623-27.307-24.913-27.307
			c-1.774,0-2.88,0.156-2.927,0.163l-0.215,0.016c-6.942,0-12.337,2.11-16.035,6.273
			C150.746,209.861,150.681,220.301,150.865,223.962z" style="fill:#6E6E96;"></path>
	</g>
	<circle r="17.954" cy="221.146" cx="175.735" style="fill:#BABADB;"></circle>
	<g>
		<circle r="5.982" cy="221.291" cx="77.359" style="fill:#F0F0FF;"></circle>
		<path d="M80.787,221.291c0,0.917-0.357,1.777-1.004,2.425c-0.648,0.648-1.511,1.007-2.426,1.007
			c-1.891,0-3.43-1.539-3.43-3.433s1.539-3.429,3.43-3.429C79.25,217.862,80.787,219.398,80.787,221.291z M77.359,212.753
			c-4.709,0-8.539,3.829-8.539,8.537c0,4.709,3.83,8.54,8.539,8.54c2.281,0,4.427-0.891,6.037-2.501
			c1.613-1.613,2.502-3.758,2.502-6.038C85.898,216.582,82.067,212.753,77.359,212.753z" style="fill:#6E6E96;"></path>
	</g>
	<g>
		<circle r="5.982" cy="221.291" cx="175.921" style="fill:#F0F0FF;"></circle>
		<path d="M179.351,221.291c0,1.895-1.538,3.432-3.43,3.432c-1.895,0-3.429-1.537-3.429-3.432
			c0-0.917,0.354-1.775,1.004-2.424c0.647-0.647,1.509-1.005,2.424-1.005C177.812,217.862,179.351,219.398,179.351,221.291z
			 M175.921,212.753c-2.28,0-4.425,0.888-6.036,2.502c-1.613,1.609-2.501,3.754-2.501,6.034c0,4.708,3.829,8.539,8.538,8.539
			c4.708,0,8.539-3.831,8.539-8.539S180.629,212.753,175.921,212.753z" style="fill:#6E6E96;"></path>
	</g>
	<path d="M102.602,193.73h106.98v-7.838H99.146C99.146,185.895,98.219,193.73,102.602,193.73z" style="fill:#CFDEFF;"></path>
	<g>
		<path d="M92.915,133.279H67.967c-2.97,0-5.913,2.376-6.536,5.279l-4.948,27.699
			c-0.28,1.311-0.539,3.008-0.736,5.637h37.171l-0.001-0.891v-32.322L92.915,133.279L92.915,133.279z" style="fill:#8CD0FF;"></path>
		<path d="M92.917,173.395H55.746c-0.417,0-0.816-0.174-1.1-0.479c-0.284-0.307-0.427-0.717-0.396-1.133
			c0.178-2.375,0.421-4.23,0.765-5.838l4.938-27.649c0.775-3.615,4.365-6.516,8.013-6.516h24.948c0.828,0,1.5,0.672,1.5,1.5
			l0.002,38.613c0,0.398-0.157,0.78-0.439,1.062C93.697,173.236,93.315,173.395,92.917,173.395z M57.382,170.395h34.034v-35.615
			H67.967c-2.272,0-4.593,1.875-5.069,4.094l-4.938,27.648C57.717,167.656,57.531,168.905,57.382,170.395z" style="fill:#6E6E96;"></path>
	</g>
	<rect height="7.06" width="110.252" style="opacity:0.15;fill:#6E6E96;enable-background:new    ;" y="182.138" x="100.742"></rect>
	<path d="M65.446,147.072c0.623-2.907,1.461-8.891,9.24-8.891h18.677
		v0.947l0.002-5.402H68.415c-2.974,0-5.913,2.377-6.536,5.281l-4.948,27.696c-0.282,1.312-0.541,3.009-0.737,5.636h4.735
		L65.446,147.072z" style="opacity:0.15;fill:#6E6E96;enable-background:new    ;"></path>
	<g>
		<rect height="9.125" width="7.315" style="fill:#FFF23F;" y="190.854" x="44.953"></rect>
		<path d="M52.269,201.479h-7.315c-0.829,0-1.5-0.672-1.5-1.5v-9.125c0-0.828,0.671-1.5,1.5-1.5h7.315
			c0.829,0,1.5,0.672,1.5,1.5v9.125C53.769,200.807,53.097,201.479,52.269,201.479z M46.453,198.479h4.315v-6.125h-4.315V198.479z" style="fill:#6E6E96;"></path>
	</g>
	<path d="M87.727,183.337h-6.159c-0.829,0-1.5-0.672-1.5-1.5s0.671-1.5,1.5-1.5h6.159
		c0.829,0,1.5,0.672,1.5,1.5S88.555,183.337,87.727,183.337z" style="fill:#6E6E96;"></path>
	<g>
		<rect height="9.179" width="7.944" style="fill:#F59393;" y="196.712" x="206.869"></rect>
		<path d="M214.814,207.391h-7.944c-0.828,0-1.5-0.672-1.5-1.5v-9.179c0-0.828,0.672-1.5,1.5-1.5h7.944
			c0.828,0,1.5,0.672,1.5,1.5v9.179C216.314,206.719,215.642,207.391,214.814,207.391z M208.369,204.391h4.944v-6.179h-4.944
			V204.391z" style="fill:#6E6E96;"></path>
	</g>
	<g>
		<rect height="11.461" width="7.315" style="fill:#F59393;" y="199.979" x="44.953"></rect>
		<path d="M52.269,212.939h-7.315c-0.829,0-1.5-0.672-1.5-1.5v-11.461c0-0.828,0.671-1.5,1.5-1.5h7.315
			c0.829,0,1.5,0.672,1.5,1.5v11.461C53.769,212.268,53.097,212.939,52.269,212.939z M46.453,209.939h4.315v-8.461h-4.315V209.939z" style="fill:#6E6E96;"></path>
	</g>
	<rect height="2.855" width="34.255" style="fill:#CFDEFF;" y="173.273" x="57.228"></rect>
	<path d="M58.918,197.613h-3.022v5.408h3.022
		c0,0,4.171-8.789,16.265-8.789h17.884v-3.604H75.182C63.089,190.626,58.918,197.613,58.918,197.613z" style="opacity:0.15;fill:#6E6E96;enable-background:new    ;"></path>
	<polyline points="63.853,159.691 85.383,138.16 91.559,138.16 
		91.559,145.809 66.937,170.429 61.272,170.429 63.192,159.691" style="opacity:0.37;fill:#FFFFFF;enable-background:new    ;"></polyline>
	<polygon points="72.592,170.568 77.117,170.568 91.476,156.21 
		91.476,151.686" style="opacity:0.25;fill:#FFFFFF;enable-background:new    ;"></polygon>
	<rect height="3" width="4.057" style="opacity:0.4;fill:#FFFFFF;enable-background:new    ;" y="201.296" x="46.411"></rect>
	<path d="M64.036,222.664c0-8.004,6.487-14.489,14.488-14.489c4.773,0,8.994,2.316,11.636,5.877
		c-2.22-5.396-7.521-9.196-13.718-9.196c-8.188,0-14.826,6.638-14.826,14.828c0,4.299,1.84,8.155,4.76,10.864
		C64.901,228.277,64.036,225.574,64.036,222.664z" style="fill:#CCCCF0;"></path>
	<rect height="3" width="4.958" style="opacity:0.3;fill:#FFFFFF;enable-background:new    ;" y="197.916" x="208.371"></rect>
	<path d="M185.63,209.761c2.206,2.502,3.555,5.776,3.555,9.375
		c0,7.843-6.354,14.198-14.198,14.198c-7.337,0-13.37-5.564-14.117-12.704c-0.055,0.521-0.08,1.045-0.08,1.578
		c0,8.59,6.964,15.551,15.551,15.551c8.589,0,15.552-6.961,15.552-15.551C191.89,217.109,189.424,212.598,185.63,209.761z" style="opacity:0.2;fill:#6E6E96;enable-background:new    ;"></path>
	<g style="opacity:0.2;">
		<path d="M86.281,209.271c2.205,2.502,3.556,5.776,3.556,9.377c0,7.842-6.356,14.196-14.199,14.196
			c-7.336,0-13.372-5.564-14.118-12.704c-0.053,0.52-0.08,1.047-0.08,1.579c0,8.587,6.963,15.55,15.553,15.55
			c8.588,0,15.551-6.963,15.551-15.55C92.542,216.619,90.075,212.105,86.281,209.271z" style="fill:#6E6E96;"></path>
	</g>
	<path d="M162.744,221.989c0-8.005,6.487-14.49,14.488-14.49c4.773,0,8.994,2.315,11.637,5.877
		c-2.221-5.396-7.521-9.197-13.719-9.197c-8.188,0-14.826,6.638-14.826,14.828c0,4.3,1.84,8.156,4.76,10.864
		C163.61,227.602,162.744,224.896,162.744,221.989z" style="fill:#CCCCF0;"></path>
	<path d="M175.735,205.744c8.492,0,15.401,6.908,15.401,15.398c0,8.492-6.909,15.4-15.401,15.4
		c-8.489,0-15.398-6.908-15.398-15.4C160.334,212.652,167.243,205.744,175.735,205.744z M155.225,221.146
		c0,11.307,9.199,20.51,20.51,20.51c11.312,0,20.513-9.201,20.513-20.51c0-11.312-9.201-20.513-20.513-20.513
		C164.425,200.634,155.225,209.834,155.225,221.146z" style="fill:#6E6E96;"></path>
	<path d="M77.112,205.744c8.491,0,15.399,6.908,15.399,15.398c0,8.492-6.908,15.4-15.399,15.4
		c-8.49,0-15.398-6.908-15.398-15.4C61.712,212.652,68.62,205.744,77.112,205.744z M56.602,221.146
		c0,11.307,9.201,20.51,20.51,20.51c11.311,0,20.511-9.201,20.511-20.51c0-11.312-9.201-20.513-20.511-20.513
		C65.803,200.634,56.602,209.834,56.602,221.146z" style="fill:#6E6E96;"></path>
	<path d="M105.155,232.917c-0.829,0-1.5-0.672-1.5-1.5v-5.955c0-0.828,0.671-1.5,1.5-1.5s1.5,0.672,1.5,1.5
		v5.955C106.655,232.245,105.983,232.917,105.155,232.917z" style="fill:#6E6E96;"></path>
	<path d="M202.359,232.917c-0.828,0-1.5-0.672-1.5-1.5v-5.955c0-0.828,0.672-1.5,1.5-1.5s1.5,0.672,1.5,1.5
		v5.955C203.859,232.245,203.187,232.917,202.359,232.917z" style="fill:#6E6E96;"></path>
	<path d="M152.631,225.462c0,0-1.306-26.797,19.532-26.797
		s26.741,16.334,26.741,26.797l3.436-1.459c0,0,0.806-28.669-29.562-28.669c-30.364,0-23.306,30.128-23.306,30.128H152.631z" style="opacity:0.2;fill:#6E6E96;enable-background:new    ;"></path>
	<path d="M56.814,224.066c0,0-0.637-25.702,20.396-25.702
		c21.034,0,22.837,20.239,22.837,27.1l5.106-1.461c0,0,0.223-28.668-18.327-28.668c-18.552,0-34.558-3.473-34.558,30.129
		L56.814,224.066z" style="opacity:0.2;fill:#6E6E96;enable-background:new    ;"></path>
	<g id="Layer_6_1_">
		<rect height="82.772" width="109.016" style="fill:#F5D8BD;" y="99.005" x="101.956"></rect>
		<g>
			<rect height="21.606" width="44.859" style="fill:#FFFFFF;" y="134.9" x="133.845"></rect>
			<path d="M178.704,158.007h-44.859c-0.828,0-1.5-0.672-1.5-1.5V134.9c0-0.828,0.672-1.5,1.5-1.5h44.859
				c0.828,0,1.5,0.672,1.5,1.5v21.606C180.204,157.335,179.532,158.007,178.704,158.007z M135.345,155.007h41.859V136.4h-41.859
				V155.007z" style="fill:#6E6E96;"></path>
		</g>
		<g>
			<rect height="14.14" width="19.391" style="fill:#E6CAB1;" y="99.005" x="145.359"></rect>
			<path d="M164.749,114.645h-19.391c-0.828,0-1.5-0.671-1.5-1.5v-14.14c0-0.829,0.672-1.5,1.5-1.5h19.391
				c0.828,0,1.5,0.671,1.5,1.5v14.14C166.249,113.974,165.577,114.645,164.749,114.645z M146.859,111.645h16.391v-11.14h-16.391
				V111.645z" style="fill:#6E6E96;"></path>
		</g>
		<rect height="6.617" width="109.016" style="opacity:0.15;fill:#6E6E96;enable-background:new    ;" y="175.16" x="101.956"></rect>
		<rect height="3.251" width="109.016" style="opacity:0.4;fill:#FFFFFF;enable-background:new    ;" y="99.005" x="101.956"></rect>
		<path d="M210.972,183.277H101.956c-0.829,0-1.5-0.672-1.5-1.5V99.005c0-0.829,0.671-1.5,1.5-1.5h109.016
			c0.828,0,1.5,0.671,1.5,1.5v82.772C212.472,182.605,211.8,183.277,210.972,183.277z M103.456,180.277h106.016v-79.772H103.456
			V180.277z" style="fill:#6E6E96;"></path>
		<g>
			<rect height="3" width="11.316" style="fill:#CCCCDE;" y="139.693" x="138.595"></rect>
			<rect height="3" width="5.412" style="fill:#CCCCDE;" y="139.693" x="154.095"></rect>
			<rect height="3" width="20.912" style="fill:#CCCCDE;" y="144.122" x="138.595"></rect>
			<rect height="3" width="6.15" style="fill:#CCCCDE;" y="144.122" x="165.412"></rect>
			<rect height="3" width="10.087" style="fill:#CCCCDE;" y="148.55" x="138.595"></rect>
			<rect height="3" width="11.562" style="fill:#CCCCDE;" y="148.55" x="154.588"></rect>
		</g>
		<rect height="7.874" width="21.65" style="opacity:0.15;fill:#6E6E96;enable-background:new    ;" y="109.268" x="144.007"></rect>
		<polygon points="103.694,94.877 209.233,94.877 210.972,99.005 
			101.956,99.005" style="opacity:0.15;fill:#6E6E96;enable-background:new    ;"></polygon>
	</g>
</g>
</svg>
