<?xml version="1.0" encoding="utf-8"?>
<!-- Generator: Adobe Illustrator 25.0.0, SVG Export Plug-In . SVG Version: 6.00 Build 0)  -->
<svg version="1.1" id="图层_1" xmlns="http://www.w3.org/2000/svg" xmlns:xlink="http://www.w3.org/1999/xlink" x="0px" y="0px"
	 viewBox="0 0 91.86 98.22" style="enable-background:new 0 0 91.86 98.22;" xml:space="preserve">
<style type="text/css">
	.st0{fill:#FF822E;}
	.st1{fill:#E73E00;}
	.st2{fill:#FF6600;}
</style>
<g>
	<polygon class="st0" points="76.42,38.79 86.23,44.46 76.42,50.13 	"/>
	<polygon class="st0" points="76.41,38.78 76.42,38.79 76.42,50.13 66.59,44.46 	"/>
	<polygon class="st0" points="66.59,33.12 76.41,38.78 66.59,44.46 	"/>
	<polygon class="st0" points="56.76,27.44 66.59,33.12 56.77,38.79 56.76,38.78 	"/>
	<polygon class="st0" points="46.95,21.78 56.76,27.44 46.94,33.12 	"/>
	<polygon class="st0" points="46.93,21.77 46.95,21.78 46.94,33.12 37.12,27.44 	"/>
	<polygon class="st0" points="37.13,16.11 46.93,21.77 37.12,27.44 37.11,16.11 	"/>
	<polygon class="st0" points="27.3,10.43 37.12,16.1 37.11,16.11 27.31,21.78 27.29,21.77 27.3,10.45 	"/>
	<polygon class="st0" points="17.49,4.77 27.29,10.43 27.3,10.45 17.48,16.11 	"/>
	<polygon class="st0" points="7.66,10.43 17.49,4.77 17.48,16.11 	"/>
	<polygon class="st1" points="86.23,44.46 86.23,55.8 76.42,50.13 	"/>
	<polygon class="st0" points="56.76,27.44 56.76,38.78 46.94,33.12 	"/>
	<polygon class="st0" points="66.59,33.12 66.59,44.46 56.77,38.79 	"/>
	<polygon class="st0" points="17.48,16.11 27.3,10.45 27.29,21.77 	"/>
	<polygon class="st0" points="37.11,16.11 37.12,27.44 27.31,21.78 	"/>
	<polygon class="st1" points="76.42,50.13 86.23,55.8 76.41,61.47 	"/>
	<polygon class="st0" points="66.59,44.46 76.42,50.13 66.58,55.8 	"/>
	<polygon class="st2" points="56.77,38.79 66.59,44.46 56.77,50.13 	"/>
	<polygon class="st2" points="56.76,38.78 56.77,38.79 56.77,50.13 46.94,44.46 	"/>
	<polygon class="st2" points="46.94,33.12 56.76,38.78 46.94,44.46 	"/>
	<polygon class="st2" points="37.12,27.44 46.94,33.12 37.12,38.79 37.11,38.78 	"/>
	<polygon class="st2" points="27.31,21.78 37.12,27.44 27.3,33.11 27.29,21.79 	"/>
	<polygon class="st2" points="17.48,16.11 27.29,21.77 27.29,21.79 17.48,27.45 	"/>
	<polygon class="st2" points="7.66,10.43 17.48,16.11 7.67,21.78 7.65,21.77 	"/>
	<polygon class="st2" points="7.67,21.78 17.48,16.11 17.48,27.45 	"/>
	<polygon class="st2" points="37.12,27.44 37.11,38.78 27.3,33.11 	"/>
	<polygon class="st2" points="37.12,38.79 46.94,33.12 46.94,44.46 	"/>
	<polygon class="st1" points="66.58,55.8 76.42,50.13 76.41,61.47 	"/>
	<polygon class="st0" points="66.59,44.46 66.58,55.8 56.77,50.13 	"/>
	<polygon class="st2" points="27.29,21.79 27.3,33.11 17.48,27.45 	"/>
	<polygon class="st1" points="66.58,55.8 76.41,61.47 66.59,67.14 	"/>
	<polygon class="st0" points="56.77,50.13 66.58,55.8 56.76,61.47 	"/>
	<polygon class="st1" points="17.48,27.45 27.3,33.11 17.49,38.77 	"/>
	<polygon class="st2" points="7.67,21.78 17.48,27.45 7.66,33.12 	"/>
	<polygon class="st2" points="17.48,27.45 17.49,38.77 17.48,38.79 7.66,33.12 	"/>
	<polygon class="st1" points="66.58,55.8 66.59,67.14 56.76,61.47 	"/>
	<polygon class="st1" points="27.3,33.11 27.29,44.45 17.49,38.79 17.48,38.79 17.49,38.77 	"/>
	<polygon class="st0" points="56.77,50.13 56.76,61.47 46.95,55.8 	"/>
	<polygon class="st1" points="56.76,61.47 66.59,67.14 56.76,72.81 	"/>
	<polygon class="st0" points="46.95,55.8 56.76,61.47 46.95,67.14 	"/>
	<polygon class="st0" points="46.94,55.8 46.95,55.8 46.95,67.14 37.12,61.47 	"/>
	<polygon class="st1" points="17.49,38.79 27.29,44.45 17.48,50.11 	"/>
	<polygon class="st2" points="17.48,38.79 17.49,38.79 17.48,50.11 17.47,50.13 7.66,44.46 7.67,44.45 	"/>
	<polygon class="st2" points="7.66,33.12 17.48,38.79 7.67,44.45 	"/>
	<polygon class="st1" points="27.29,44.45 27.29,55.79 17.49,50.13 17.48,50.11 	"/>
	<polygon class="st1" points="56.76,61.47 56.76,72.81 46.95,67.14 	"/>
	<polygon class="st1" points="46.95,67.14 56.76,72.81 46.94,78.48 	"/>
	<polygon class="st0" points="37.12,61.47 46.95,67.14 37.13,72.82 37.11,72.81 	"/>
	<polygon class="st1" points="27.29,55.79 27.3,55.8 27.3,67.14 17.48,61.47 17.49,61.46 	"/>
	<polygon class="st1" points="17.49,50.13 27.29,55.79 17.49,61.46 	"/>
	<polygon class="st2" points="17.47,50.13 17.49,50.13 17.49,61.46 17.48,61.47 17.47,61.47 7.65,55.8 7.66,55.79 	"/>
	<polygon class="st2" points="7.66,44.46 17.47,50.13 7.66,55.79 	"/>
	<polygon class="st0" points="37.12,61.47 37.11,72.81 27.3,67.14 	"/>
	<polygon class="st1" points="46.95,67.14 46.94,78.48 37.13,72.82 	"/>
	<polygon class="st1" points="37.13,72.82 46.94,78.48 37.12,84.16 	"/>
	<polygon class="st1" points="37.11,72.81 37.13,72.82 37.12,84.16 27.29,78.48 	"/>
	<polygon class="st0" points="27.3,67.14 37.11,72.81 27.29,78.48 	"/>
	<polygon class="st1" points="17.48,61.47 27.3,67.14 17.48,72.81 	"/>
	<polygon class="st2" points="17.47,61.47 17.48,61.47 17.48,72.81 7.66,67.15 7.65,67.14 7.66,67.13 	"/>
	<polygon class="st2" points="7.65,55.8 17.47,61.47 7.66,67.13 	"/>
	<polygon class="st1" points="27.3,67.14 27.29,78.48 17.48,72.81 	"/>
	<polygon class="st1" points="27.29,78.48 37.12,84.16 27.29,89.82 	"/>
	<polygon class="st1" points="17.48,72.81 27.29,78.48 17.48,84.14 	"/>
	<polygon class="st2" points="7.66,67.15 17.48,72.81 7.66,78.49 	"/>
	<polygon class="st2" points="17.48,72.81 17.48,84.14 17.48,84.15 7.66,78.49 	"/>
	<polygon class="st1" points="27.29,78.48 27.29,89.82 17.49,84.16 17.48,84.15 17.48,84.14 	"/>
	<polygon class="st1" points="17.49,84.16 27.29,89.82 17.49,95.49 	"/>
	<polygon class="st2" points="17.48,84.15 17.49,84.16 17.49,95.49 17.47,95.49 7.66,89.83 7.66,89.81 	"/>
	<polygon class="st2" points="7.66,78.49 17.48,84.15 7.66,89.81 	"/>
</g>
</svg>
